<svg id="my-svg" width="100%" xmlns="http://www.w3.org/2000/svg" xmlns:xlink="http://www.w3.org/1999/xlink" class="flowchart" style="max-width: 548.414px; background-color: rgb(13, 17, 23);" viewBox="-8 -8 548.41357421875 657.5" role="graphics-document document" aria-roledescription="flowchart-v2"><style>#my-svg{font-family:Arial,Helvetica,sans-serif;font-size:15px;fill:#e6edf3;}@keyframes edge-animation-frame{from{stroke-dashoffset:0;}}@keyframes dash{to{stroke-dashoffset:0;}}#my-svg .edge-animation-slow{stroke-dasharray:9,5!important;stroke-dashoffset:900;animation:dash 50s linear infinite;stroke-linecap:round;}#my-svg .edge-animation-fast{stroke-dasharray:9,5!important;stroke-dashoffset:900;animation:dash 20s linear infinite;stroke-linecap:round;}#my-svg .error-icon{fill:hsl(36, 55.5555555556%, 20.8823529412%);}#my-svg .error-text{fill:rgb(172.1666666665, 195.8333333333, 231.3333333333);stroke:rgb(172.1666666665, 195.8333333333, 231.3333333333);}#my-svg .edge-thickness-normal{stroke-width:1px;}#my-svg .edge-thickness-thick{stroke-width:3.5px;}#my-svg .edge-pattern-solid{stroke-dasharray:0;}#my-svg .edge-thickness-invisible{stroke-width:0;fill:none;}#my-svg .edge-pattern-dashed{stroke-dasharray:3;}#my-svg .edge-pattern-dotted{stroke-dasharray:2;}#my-svg .marker{fill:#6b8f8e;stroke:#6b8f8e;}#my-svg .marker.cross{stroke:#6b8f8e;}#my-svg svg{font-family:Arial,Helvetica,sans-serif;font-size:15px;}#my-svg p{margin:0;}#my-svg .label{font-family:Arial,Helvetica,sans-serif;color:#ffffff;}#my-svg .cluster-label text{fill:#e6edf3;}#my-svg .cluster-label span{color:#e6edf3;}#my-svg .cluster-label span p{background-color:transparent;}#my-svg .label text,#my-svg span{fill:#ffffff;color:#ffffff;}#my-svg .node rect,#my-svg .node circle,#my-svg .node ellipse,#my-svg .node polygon,#my-svg .node path{fill:#12243f;stroke:#5C7CFA;stroke-width:1px;}#my-svg .rough-node .label text,#my-svg .node .label text,#my-svg .image-shape .label,#my-svg .icon-shape .label{text-anchor:middle;}#my-svg .node .katex path{fill:#000;stroke:#000;stroke-width:1px;}#my-svg .rough-node .label,#my-svg .node .label,#my-svg .image-shape .label,#my-svg .icon-shape .label{text-align:center;}#my-svg .node.clickable{cursor:pointer;}#my-svg .root .anchor path{fill:#6b8f8e!important;stroke-width:0;stroke:#6b8f8e;}#my-svg .arrowheadPath{fill:#f2eee8;}#my-svg .edgePaths .path{stroke:#6b8f8e;stroke-width:1px;}#my-svg .flowchart-link{stroke:#6b8f8e;fill:none;}#my-svg .edgeLabel{background-color:#0d1117;text-align:center;}#my-svg .edgeLabel p{background-color:#0d1117;}#my-svg .edgeLabel rect{opacity:0.5;background-color:#0d1117;fill:#0d1117;}#my-svg .labelBkg{background-color:rgba(13, 17, 23, 0.5);}#my-svg .cluster rect{fill:#161b22;stroke:#30363d;stroke-width:1px;}#my-svg .cluster text{fill:#e6edf3;}#my-svg .cluster span{color:#e6edf3;}#my-svg .node .collapsed-indicator{fill:#30363d;stroke:none;opacity:0.6;}#my-svg .node .collapsed-separator{stroke:#30363d;stroke-width:0.75px;}#my-svg div.mermaidTooltip{position:absolute;text-align:center;max-width:200px;padding:2px;font-family:Arial,Helvetica,sans-serif;font-size:12px;background:hsl(36, 55.5555555556%, 20.8823529412%);border:1px solid hsl(36, 15.5555555556%, 10.8823529412%);border-radius:2px;pointer-events:none;z-index:100;}#my-svg .flowchartTitleText{text-anchor:middle;font-size:18px;fill:#e6edf3;}#my-svg rect.text{fill:none;stroke-width:0;}#my-svg .icon-shape,#my-svg .image-shape{background-color:#0d1117;text-align:center;}#my-svg .icon-shape p,#my-svg .image-shape p{background-color:#0d1117;padding:2px;}#my-svg .icon-shape .label rect,#my-svg .image-shape .label rect{opacity:0.5;background-color:#0d1117;fill:#0d1117;}#my-svg .label-icon{display:inline-block;height:1em;overflow:visible;vertical-align:-0.125em;}#my-svg .node .label-icon path{fill:currentColor;stroke:revert;stroke-width:revert;}#my-svg .node .neo-node{stroke:#5C7CFA;}#my-svg [data-look="neo"].node rect,#my-svg [data-look="neo"].cluster rect,#my-svg [data-look="neo"].node polygon{stroke:url(#my-svg-gradient);filter:drop-shadow( 1px 2px 2px rgba(185,185,185,1));}#my-svg [data-look="neo"].swimlane.cluster rect{filter:none;}#my-svg [data-look="neo"].node path{stroke:url(#my-svg-gradient);stroke-width:1px;}#my-svg [data-look="neo"].node .outer-path{filter:drop-shadow( 1px 2px 2px rgba(185,185,185,1));}#my-svg [data-look="neo"].node .neo-line path{stroke:#5C7CFA;filter:none;}#my-svg [data-look="neo"].node circle{stroke:url(#my-svg-gradient);filter:drop-shadow( 1px 2px 2px rgba(185,185,185,1));}#my-svg [data-look="neo"].node circle .state-start{fill:#000000;}#my-svg [data-look="neo"].icon-shape .icon{fill:url(#my-svg-gradient);filter:drop-shadow( 1px 2px 2px rgba(185,185,185,1));}#my-svg [data-look="neo"].icon-shape .icon-neo path{stroke:url(#my-svg-gradient);filter:drop-shadow( 1px 2px 2px rgba(185,185,185,1));}#my-svg :root{--mermaid-font-family:"trebuchet ms",verdana,arial,sans-serif;}</style><g><marker id="my-svg_flowchart-v2-pointEnd" class="marker flowchart-v2" viewBox="0 0 10 10" refX="5" refY="5" markerUnits="userSpaceOnUse" markerWidth="8" markerHeight="8" orient="auto"><path d="M 0 0 L 10 5 L 0 10 z" class="arrowMarkerPath" style="stroke-width: 1; stroke-dasharray: 1, 0;"/></marker><marker id="my-svg_flowchart-v2-pointStart" class="marker flowchart-v2" viewBox="0 0 10 10" refX="4.5" refY="5" markerUnits="userSpaceOnUse" markerWidth="8" markerHeight="8" orient="auto"><path d="M 0 5 L 10 10 L 10 0 z" class="arrowMarkerPath" style="stroke-width: 1; stroke-dasharray: 1, 0;"/></marker><marker id="my-svg_flowchart-v2-pointEnd-margin" class="marker flowchart-v2" viewBox="0 0 11.5 14" refX="11.5" refY="7" markerUnits="userSpaceOnUse" markerWidth="10.5" markerHeight="14" orient="auto"><path d="M 0 0 L 11.5 7 L 0 14 z" class="arrowMarkerPath" style="stroke-width: 0; stroke-dasharray: 1, 0;"/></marker><marker id="my-svg_flowchart-v2-pointStart-margin" class="marker flowchart-v2" viewBox="0 0 11.5 14" refX="1" refY="7" markerUnits="userSpaceOnUse" markerWidth="11.5" markerHeight="14" orient="auto"><polygon points="0,7 11.5,14 11.5,0" class="arrowMarkerPath" style="stroke-width: 0; stroke-dasharray: 1, 0;"/></marker><marker id="my-svg_flowchart-v2-circleEnd" class="marker flowchart-v2" viewBox="0 0 10 10" refX="11" refY="5" markerUnits="userSpaceOnUse" markerWidth="11" markerHeight="11" orient="auto"><circle cx="5" cy="5" r="5" class="arrowMarkerPath" style="stroke-width: 1; stroke-dasharray: 1, 0;"/></marker><marker id="my-svg_flowchart-v2-circleStart" class="marker flowchart-v2" viewBox="0 0 10 10" refX="-1" refY="5" markerUnits="userSpaceOnUse" markerWidth="11" markerHeight="11" orient="auto"><circle cx="5" cy="5" r="5" class="arrowMarkerPath" style="stroke-width: 1; stroke-dasharray: 1, 0;"/></marker><marker id="my-svg_flowchart-v2-circleEnd-margin" class="marker flowchart-v2" viewBox="0 0 10 10" refY="5" refX="12.25" markerUnits="userSpaceOnUse" markerWidth="14" markerHeight="14" orient="auto"><circle cx="5" cy="5" r="5" class="arrowMarkerPath" style="stroke-width: 0; stroke-dasharray: 1, 0;"/></marker><marker id="my-svg_flowchart-v2-circleStart-margin" class="marker flowchart-v2" viewBox="0 0 10 10" refX="-2" refY="5" markerUnits="userSpaceOnUse" markerWidth="14" markerHeight="14" orient="auto"><circle cx="5" cy="5" r="5" class="arrowMarkerPath" style="stroke-width: 0; stroke-dasharray: 1, 0;"/></marker><marker id="my-svg_flowchart-v2-crossEnd" class="marker cross flowchart-v2" viewBox="0 0 11 11" refX="12" refY="5.2" markerUnits="userSpaceOnUse" markerWidth="11" markerHeight="11" orient="auto"><path d="M 1,1 l 9,9 M 10,1 l -9,9" class="arrowMarkerPath" style="stroke-width: 2; stroke-dasharray: 1, 0;"/></marker><marker id="my-svg_flowchart-v2-crossStart" class="marker cross flowchart-v2" viewBox="0 0 11 11" refX="-1" refY="5.2" markerUnits="userSpaceOnUse" markerWidth="11" markerHeight="11" orient="auto"><path d="M 1,1 l 9,9 M 10,1 l -9,9" class="arrowMarkerPath" style="stroke-width: 2; stroke-dasharray: 1, 0;"/></marker><marker id="my-svg_flowchart-v2-crossEnd-margin" class="marker cross flowchart-v2" viewBox="0 0 15 15" refX="17.7" refY="7.5" markerUnits="userSpaceOnUse" markerWidth="12" markerHeight="12" orient="auto"><path d="M 1,1 L 14,14 M 1,14 L 14,1" class="arrowMarkerPath" style="stroke-width: 2.5;"/></marker><marker id="my-svg_flowchart-v2-crossStart-margin" class="marker cross flowchart-v2" viewBox="0 0 15 15" refX="-3.5" refY="7.5" markerUnits="userSpaceOnUse" markerWidth="12" markerHeight="12" orient="auto"><path d="M 1,1 L 14,14 M 1,14 L 14,1" class="arrowMarkerPath" style="stroke-width: 2.5; stroke-dasharray: 1, 0;"/></marker><g class="root"><g class="clusters"/><g class="edges edgePaths"><path d="M221.90395320042444,311.9166666666667L223.64797973632812,311.9166666666667L236.57691192446265,311.9166666666667Q243.64797973632812,311.9166666666667 243.64797973632812,304.8455988548012L243.64797973632812,64.82106781186548Q243.64797973632812,57.75 250.7190475481936,57.75L279.6479797363281,57.75" id="my-svg-L_C_A_0" class="edge-thickness-normal edge-pattern-solid edge-thickness-normal edge-pattern-solid flowchart-link" style="stroke-dasharray: 0 0 302.5823974609375 4; stroke-dashoffset: 0;;" data-edge="true" data-et="edge" data-id="L_C_A_0" data-points="W3sieCI6MjIxLjkwMzk1MzIwMDQyNDQ0LCJ5IjozMTEuOTE2NjY2NjY2NjY2N30seyJ4IjoyMjMuNjQ3OTc5NzM2MzI4MTIsInkiOjMxMS45MTY2NjY2NjY2NjY3fSx7IngiOjI0My42NDc5Nzk3MzYzMjgxMiwieSI6MzExLjkxNjY2NjY2NjY2Njd9LHsieCI6MjQzLjY0Nzk3OTczNjMyODEyLCJ5Ijo1Ny43NX0seyJ4IjoyODMuNjQ3OTc5NzM2MzI4MSwieSI6NTcuNzV9XQ==" data-look="neo" marker-end="url(#my-svg_flowchart-v2-pointEnd-margin)"/><path d="M223.22441169216472,316.3333333333333L223.64797973632812,316.3333333333333L256.57691192446265,316.3333333333333Q263.6479797363281,316.3333333333333 263.6479797363281,309.26226552146784L263.6479797363281,196.32106781186548Q263.6479797363281,189.25 270.7190475481936,189.25L279.6479797363281,189.25" id="my-svg-L_C_B_0" class="edge-thickness-normal edge-pattern-solid edge-thickness-normal edge-pattern-solid flowchart-link" style="stroke-dasharray: 0 0 174.1786346435547 4; stroke-dashoffset: 0;;" data-edge="true" data-et="edge" data-id="L_C_B_0" data-points="W3sieCI6MjIzLjIyNDQxMTY5MjE2NDcyLCJ5IjozMTYuMzMzMzMzMzMzMzMzM30seyJ4IjoyMjMuNjQ3OTc5NzM2MzI4MTIsInkiOjMxNi4zMzMzMzMzMzMzMzMzfSx7IngiOjI2My42NDc5Nzk3MzYzMjgxLCJ5IjozMTYuMzMzMzMzMzMzMzMzM30seyJ4IjoyNjMuNjQ3OTc5NzM2MzI4MSwieSI6MTg5LjI1fSx7IngiOjI4My42NDc5Nzk3MzYzMjgxLCJ5IjoxODkuMjV9XQ==" data-look="neo" marker-end="url(#my-svg_flowchart-v2-pointEnd-margin)"/><path d="M223.64797973632812,320.75L279.6479797363281,320.75" id="my-svg-L_C_P_0" class="edge-thickness-normal edge-pattern-solid edge-thickness-normal edge-pattern-solid flowchart-link" style="stroke-dasharray: 0 0 52 4; stroke-dashoffset: 0;;" data-edge="true" data-et="edge" data-id="L_C_P_0" data-points="W3sieCI6MjIzLjY0Nzk3OTczNjMyODEyLCJ5IjozMjAuNzV9LHsieCI6MjgzLjY0Nzk3OTczNjMyODEsInkiOjMyMC43NX1d" data-look="neo" marker-end="url(#my-svg_flowchart-v2-pointEnd-margin)"/><path d="M223.22441169216472,325.1666666666667L223.64797973632812,325.1666666666667L256.57691192446265,325.1666666666667Q263.6479797363281,325.1666666666667 263.6479797363281,332.23773447853216L263.6479797363281,445.1789321881345Q263.6479797363281,452.25 270.7190475481936,452.25L279.6479797363281,452.25" id="my-svg-L_C_E_0" class="edge-thickness-normal edge-pattern-solid edge-thickness-normal edge-pattern-solid flowchart-link" style="stroke-dasharray: 0 0 174.17860412597656 4; stroke-dashoffset: 0;;" data-edge="true" data-et="edge" data-id="L_C_E_0" data-points="W3sieCI6MjIzLjIyNDQxMTY5MjE2NDcyLCJ5IjozMjUuMTY2NjY2NjY2NjY2N30seyJ4IjoyMjMuNjQ3OTc5NzM2MzI4MTIsInkiOjMyNS4xNjY2NjY2NjY2NjY3fSx7IngiOjI2My42NDc5Nzk3MzYzMjgxLCJ5IjozMjUuMTY2NjY2NjY2NjY2N30seyJ4IjoyNjMuNjQ3OTc5NzM2MzI4MSwieSI6NDUyLjI1fSx7IngiOjI4My42NDc5Nzk3MzYzMjgxLCJ5Ijo0NTIuMjV9XQ==" data-look="neo" marker-end="url(#my-svg_flowchart-v2-pointEnd-margin)"/><path d="M221.90395320042444,329.5833333333333L223.64797973632812,329.5833333333333L236.57691192446265,329.5833333333333Q243.64797973632812,329.5833333333333 243.64797973632812,336.6544011451988L243.64797973632812,576.6789321881345Q243.64797973632812,583.75 250.7190475481936,583.75L279.6479797363281,583.75" id="my-svg-L_C_M_0" class="edge-thickness-normal edge-pattern-solid edge-thickness-normal edge-pattern-solid flowchart-link" style="stroke-dasharray: 0 0 302.58245849609375 4; stroke-dashoffset: 0;;" data-edge="true" data-et="edge" data-id="L_C_M_0" data-points="W3sieCI6MjIxLjkwMzk1MzIwMDQyNDQ0LCJ5IjozMjkuNTgzMzMzMzMzMzMzM30seyJ4IjoyMjMuNjQ3OTc5NzM2MzI4MTIsInkiOjMyOS41ODMzMzMzMzMzMzMzfSx7IngiOjI0My42NDc5Nzk3MzYzMjgxMiwieSI6MzI5LjU4MzMzMzMzMzMzMzN9LHsieCI6MjQzLjY0Nzk3OTczNjMyODEyLCJ5Ijo1ODMuNzV9LHsieCI6MjgzLjY0Nzk3OTczNjMyODEsInkiOjU4My43NX1d" data-look="neo" marker-end="url(#my-svg_flowchart-v2-pointEnd-margin)"/></g><g class="edgeLabels"/><g class="nodes"><g class="node default" id="my-svg-flowchart-C-0" data-look="neo" transform="translate(117.82398986816406, 320.75)"><g class="basic label-container outer-path"><path d="M-82.5859375 -23.25 C-37.58699051190917 -23.25, 7.411956476181658 -23.25, 82.5859375 -23.25 C82.5859375 -23.25, 82.5859375 -23.25, 82.5859375 -23.25 C82.9276724123836 -23.23904122650651, 83.26940732476722 -23.228082453013023, 84.07557011455157 -23.202230381445318 C84.61823295927006 -23.149880349462883, 85.16089580398855 -23.097530317480448, 85.55908150916476 -23.059117821390473 C85.99924162381708 -22.987956147546157, 86.4394017384694 -22.916794473701838, 87.0303756173069 -22.82125040004227 C87.59766123823137 -22.6917711589509, 88.16494685915582 -22.562291917859525, 88.48340657589604 -22.489605565657435 C88.99944649886937 -22.33644762526778, 89.51548642184272 -22.183289684878122, 89.91220356904918 -22.065546117998046 C90.3911278896088 -21.88929754090422, 90.87005221016842 -21.71304896381039, 91.31089536344545 -21.550814608295006 C91.75287422949965 -21.355163675130044, 92.19485309555385 -21.15951274196508, 92.67373443448322 -20.947526178731245 C93.18647967469478 -20.680027315341874, 93.69922491490635 -20.412528451952504, 93.99512058409155 -20.258159870868806 C94.32791794754046 -20.056416153411693, 94.66071531098935 -19.854672435954576, 95.26962395314526 -19.485548438735297 C95.69228327659438 -19.190719591324406, 96.1149426000435 -18.895890743913515, 96.49200733392077 -18.63286670842999 C96.84365760202827 -18.3524349774209, 97.19530787013576 -18.072003246411803, 97.65724769090608 -17.703618532082377 C97.94674434756773 -17.440705328164064, 98.23624100422938 -17.177792124245748, 98.76055680153107 -16.701622389772165 C99.15243158195779 -16.296979505463753, 99.54430636238452 -15.892336621155343, 99.79740093200108 -15.63099569857562 C99.99818710874958 -15.395140830309725, 100.19897328549807 -15.159285962043828, 100.76351946738168 -14.496137893215556 C101.00838479768579 -14.168040658298557, 101.2532501279899 -13.839943423381555, 101.65494241937921 -13.30171234784045 C101.93235046791995 -12.875539090790634, 102.2097585164607 -12.449365833740817, 102.4680067398743 -12.05262721321971 C102.62239966052658 -11.778486948623065, 102.77679258117888 -11.504346684026423, 103.19937137317226 -10.754015248099419 C103.38413089189162 -10.37035815425825, 103.56889041061098 -9.986701060417081, 103.84603098511764 -9.411212727595661 C104.0190084542371 -8.983955034578727, 104.19198592335657 -8.556697341561792, 104.40532831265692 -8.029737515295414 C104.5441029113398 -7.611770534792154, 104.6828775100227 -7.193803554288892, 104.87496508310235 -6.615266389171511 C104.97135715609483 -6.247681638262507, 105.06774922908731 -5.8800968873535036, 105.2530114582274 -5.173611714484312 C105.33506522090474 -4.752282985205091, 105.41711898358207 -4.330954255925871, 105.53791396438596 -3.710697559526076 C105.59890473373898 -3.237665196413751, 105.659895503092 -2.7646328333014254, 105.72850187606886 -2.2325353523536053 C105.76293047460312 -1.696282139917951, 105.79735907313737 -1.1600289274822968, 105.82399202666599 -0.7451991785409826 C105.82399202666599 -0.3710098443221686, 105.82399202666599 0.0031794898966454044, 105.82399202666599 0.745199178540977 C105.80031023621645 1.1140621803898192, 105.7766284457669 1.4829251822386613, 105.72850187606886 2.2325353523535894 C105.66516828680996 2.7237381640138247, 105.60183469755106 3.21494097567406, 105.53791396438596 3.7106975595260594 C105.4248753426407 4.291126991466809, 105.31183672089544 4.871556423407559, 105.2530114582274 5.1736117144843075 C105.10211152749312 5.7490585508178045, 104.95121159675882 6.324505387151301, 104.87496508310235 6.615266389171495 C104.73727051699845 7.029980483626689, 104.59957595089455 7.444694578081883, 104.40532831265693 8.029737515295398 C104.27173164300744 8.359723872245528, 104.13813497335795 8.689710229195658, 103.84603098511764 9.411212727595656 C103.61037483575222 9.90055776398678, 103.37471868638681 10.389902800377905, 103.19937137317226 10.754015248099414 C102.93292130502928 11.227124325082377, 102.66647123688631 11.700233402065342, 102.4680067398743 12.052627213219704 C102.22310420113742 12.428863278259257, 101.97820166240052 12.80509934329881, 101.65494241937922 13.301712347840438 C101.39595735366773 13.648728741868991, 101.13697228795623 13.995745135897545, 100.7635194673817 14.49613789321555 C100.48065773372893 14.8284033808527, 100.19779600007615 15.16066886848985, 99.7974009320011 15.630995698575607 C99.55633243689512 15.879918711864063, 99.31526394178914 16.12884172515252, 98.76055680153107 16.70162238977216 C98.42933653018795 17.002427876597825, 98.09811625884485 17.30323336342349, 97.6572476909061 17.703618532082363 C97.22965432023543 18.044612866454752, 96.80206094956476 18.385607200827142, 96.49200733392078 18.63286670842999 C96.058899069714 18.93498428458606, 95.62579080550722 19.23710186074213, 95.26962395314527 19.48554843873529 C94.81128826147308 19.763394228506467, 94.35295256980089 20.041240018277644, 93.99512058409155 20.258159870868802 C93.56799560492914 20.480990698911228, 93.14087062576672 20.703821526953654, 92.67373443448324 20.94752617873124 C92.31451512947851 21.106541909194757, 91.95529582447378 21.26555763965827, 91.31089536344545 21.550814608295003 C90.86131957720808 21.716262653463367, 90.41174379097072 21.88171069863173, 89.9122035690492 22.06554611799804 C89.51343225054089 22.183899352137942, 89.11466093203258 22.302252586277845, 88.48340657589607 22.48960556565743 C88.01912682490982 22.59557438911153, 87.55484707392355 22.701543212565625, 87.03037561730692 22.82125040004227 C86.61649090614432 22.888164070419165, 86.20260619498173 22.95507774079606, 85.55908150916478 23.05911782139047 C85.13082675412925 23.100431042557048, 84.7025719990937 23.14174426372363, 84.07557011455157 23.202230381445318 C83.68864113646077 23.214638440661123, 83.30171215837 23.227046499876927, 82.5859375 23.25 C82.5859375 23.25, 82.5859375 23.25, 82.5859375 23.25 C30.843383513521978 23.25, -20.899170472956044 23.25, -82.5859375 23.25 C-83.03953090753308 23.23545414228642, -83.49312431506614 23.220908284572843, -84.07557011455157 23.202230381445318 C-84.5343096017835 23.157976334827005, -84.99304908901544 23.11372228820869, -85.55908150916477 23.05911782139047 C-86.10972893761367 22.970093415493437, -86.66037636606258 22.881069009596406, -87.0303756173069 22.82125040004227 C-87.42677171999753 22.730775576329446, -87.82316782268816 22.64030075261662, -88.48340657589604 22.489605565657435 C-88.78524283180793 22.400022149273624, -89.08707908771983 22.31043873288981, -89.91220356904917 22.06554611799805 C-90.26730655815798 21.934864935469957, -90.62240954726681 21.804183752941864, -91.31089536344545 21.550814608295006 C-91.79607664275952 21.336039248333957, -92.28125792207358 21.12126388837291, -92.67373443448322 20.94752617873125 C-93.18072908056523 20.683027396615838, -93.68772372664723 20.418528614500424, -93.99512058409155 20.25815987086881 C-94.33771594997627 20.050476546755647, -94.68031131586099 19.842793222642484, -95.26962395314524 19.485548438735304 C-95.55489603700693 19.286554982262864, -95.84016812086863 19.087561525790424, -96.49200733392077 18.632866708429994 C-96.93255103932493 18.281544826730524, -97.3730947447291 17.93022294503105, -97.65724769090608 17.70361853208238 C-98.04723207764938 17.349445030463553, -98.43721646439269 16.995271528844725, -98.76055680153105 16.701622389772176 C-99.17382014326085 16.2748940598848, -99.58708348499066 15.84816572999743, -99.7974009320011 15.630995698575616 C-100.11835121730849 15.253989230864955, -100.43930150261588 14.876982763154293, -100.76351946738168 14.49613789321556 C-101.0369448439439 14.129772798186435, -101.31037022050612 13.763407703157313, -101.65494241937921 13.301712347840452 C-101.94164245444695 12.861264104237414, -102.22834248951469 12.420815860634377, -102.46800673987428 12.05262721321972 C-102.7280822902616 11.59083673800186, -102.9881578406489 11.129046262784, -103.19937137317226 10.754015248099423 C-103.35916712351576 10.422195953429792, -103.51896287385928 10.09037665876016, -103.84603098511764 9.411212727595665 C-104.0664720918089 8.866718932129375, -104.28691319850017 8.322225136663086, -104.40532831265692 8.029737515295416 C-104.49974065304633 7.745382588606148, -104.59415299343573 7.46102766191688, -104.87496508310235 6.615266389171504 C-104.96038138941006 6.289536993558882, -105.04579769571778 5.963807597946261, -105.2530114582274 5.1736117144843154 C-105.36152754838913 4.616404526387624, -105.47004363855085 4.059197338290932, -105.53791396438596 3.710697559526078 C-105.59332171604547 3.280965979153111, -105.64872946770497 2.8512343987801443, -105.72850187606886 2.232535352353618 C-105.75953769652313 1.749127397115004, -105.79057351697739 1.26571944187639, -105.82399202666599 0.7451991785409855 C-105.82399202666599 0.34580823957212153, -105.82399202666599 -0.05358269939674243, -105.82399202666599 -0.7451991785409742 C-105.78793770469008 -1.3067743458407817, -105.75188338271415 -1.8683495131405892, -105.72850187606886 -2.2325353523535862 C-105.69019670863517 -2.5296226667583825, -105.6518915412015 -2.8267099811631793, -105.53791396438596 -3.7106975595260674 C-105.43512383362813 -4.238503156265721, -105.3323337028703 -4.766308753005374, -105.2530114582274 -5.173611714484305 C-105.10541181499346 -5.7364731242253955, -104.9578121717595 -6.299334533966485, -104.87496508310237 -6.6152663891714925 C-104.77258981325359 -6.923604390671883, -104.67021454340481 -7.231942392172274, -104.40532831265693 -8.029737515295386 C-104.25080973208156 -8.41140139673008, -104.0962911515062 -8.793065278164775, -103.84603098511764 -9.411212727595652 C-103.6693244664229 -9.77814759457908, -103.49261794772816 -10.14508246156251, -103.19937137317226 -10.754015248099412 C-102.9313105777079 -11.229984334545318, -102.66324978224355 -11.705953420991223, -102.4680067398743 -12.052627213219713 C-102.23466343689104 -12.411105188052282, -102.00132013390778 -12.769583162884851, -101.65494241937922 -13.301712347840445 C-101.32603048279475 -13.742424378369797, -100.99711854621026 -14.183136408899152, -100.7635194673817 -14.49613789321555 C-100.42288447928203 -14.896267132917332, -100.08224949118237 -15.296396372619114, -99.7974009320011 -15.630995698575607 C-99.50701127257862 -15.930846863363742, -99.21662161315614 -16.230698028151878, -98.76055680153107 -16.701622389772155 C-98.4131059719832 -17.017168040122346, -98.06565514243533 -17.332713690472538, -97.6572476909061 -17.70361853208236 C-97.29298182346263 -17.9941108678467, -96.92871595601915 -18.28460320361104, -96.49200733392078 -18.632866708429987 C-96.06193171799369 -18.93286884042738, -95.63185610206659 -19.232870972424767, -95.26962395314527 -19.485548438735286 C-94.82435201346968 -19.755474905274998, -94.37908007379409 -20.025401371814706, -93.99512058409155 -20.258159870868802 C-93.55607957336802 -20.48720728494408, -93.1170385626445 -20.71625469901936, -92.67373443448324 -20.94752617873124 C-92.26062265129993 -21.13039851062085, -91.8475108681166 -21.313270842510462, -91.31089536344547 -21.550814608295 C-90.85639502338081 -21.71807493479388, -90.40189468331617 -21.885335261292756, -89.9122035690492 -22.06554611799804 C-89.44782807821558 -22.203370326120766, -88.98345258738195 -22.341194534243495, -88.48340657589607 -22.489605565657428 C-88.01154897389122 -22.59730398415642, -87.53969137188639 -22.705002402655406, -87.03037561730692 -22.821250400042267 C-86.68892547792989 -22.876453410591367, -86.34747533855285 -22.931656421140467, -85.55908150916478 -23.05911782139047 C-85.02644394055494 -23.110500727043863, -84.4938063719451 -23.161883632697258, -84.07557011455158 -23.202230381445318 C-83.57415995016127 -23.218309629481638, -83.07274978577097 -23.234388877517958, -82.58593750000001 -23.25 C-82.58593750000001 -23.25, -82.5859375 -23.25, -82.5859375 -23.25" stroke="none" stroke-width="0" fill="#3a2c12" style="fill:#3a2c12 !important;stroke:#F08C00 !important"/><path d="M-82.5859375 -23.25 C-34.78599133899237 -23.25, 13.013954822015265 -23.25, 82.5859375 -23.25 M-82.5859375 -23.25 C-18.85584693145956 -23.25, 44.87424363708088 -23.25, 82.5859375 -23.25 M82.5859375 -23.25 C82.5859375 -23.25, 82.5859375 -23.25, 82.5859375 -23.25 M82.5859375 -23.25 C82.5859375 -23.25, 82.5859375 -23.25, 82.5859375 -23.25 M82.5859375 -23.25 C83.14957307111204 -23.23192530428452, 83.7132086422241 -23.213850608569043, 84.07557011455157 -23.202230381445318 M82.5859375 -23.25 C82.93518297251417 -23.238800377461544, 83.28442844502834 -23.22760075492309, 84.07557011455157 -23.202230381445318 M84.07557011455157 -23.202230381445318 C84.5261705971037 -23.15876149481988, 84.97677107965583 -23.115292608194444, 85.55908150916476 -23.059117821390473 M84.07557011455157 -23.202230381445318 C84.6525100903439 -23.14657367585247, 85.22945006613622 -23.090916970259624, 85.55908150916476 -23.059117821390473 M85.55908150916476 -23.059117821390473 C85.85579219506441 -23.01114793871995, 86.15250288096406 -22.963178056049433, 87.0303756173069 -22.82125040004227 M85.55908150916476 -23.059117821390473 C85.94416872478286 -22.996859906765298, 86.32925594040097 -22.93460199214012, 87.0303756173069 -22.82125040004227 M87.0303756173069 -22.82125040004227 C87.33989568028129 -22.75060446547554, 87.64941574325567 -22.679958530908806, 88.48340657589604 -22.489605565657435 M87.0303756173069 -22.82125040004227 C87.50390551728668 -22.713170290443266, 87.97743541726646 -22.60509018084426, 88.48340657589604 -22.489605565657435 M88.48340657589604 -22.489605565657435 C88.79606533540678 -22.396810087013968, 89.1087240949175 -22.3040146083705, 89.91220356904918 -22.065546117998046 M88.48340657589604 -22.489605565657435 C88.92058207514431 -22.359854172261574, 89.35775757439258 -22.23010277886571, 89.91220356904918 -22.065546117998046 M89.91220356904918 -22.065546117998046 C90.45501790017921 -21.865785426421525, 90.99783223130923 -21.666024734845003, 91.31089536344545 -21.550814608295006 M89.91220356904918 -22.065546117998046 C90.21291389922791 -21.954881936756454, 90.51362422940664 -21.844217755514862, 91.31089536344545 -21.550814608295006 M91.31089536344545 -21.550814608295006 C91.63180983279128 -21.408755292305113, 91.9527243021371 -21.266695976315216, 92.67373443448322 -20.947526178731245 M91.31089536344545 -21.550814608295006 C91.7748318600626 -21.345443683429796, 92.23876835667974 -21.140072758564585, 92.67373443448322 -20.947526178731245 M92.67373443448322 -20.947526178731245 C92.99229129521115 -20.781335268534892, 93.31084815593908 -20.61514435833854, 93.99512058409155 -20.258159870868806 M92.67373443448322 -20.947526178731245 C93.06514598451743 -20.743327023789462, 93.45655753455164 -20.53912786884768, 93.99512058409155 -20.258159870868806 M93.99512058409155 -20.258159870868806 C94.41197982051483 -20.005457352012222, 94.82883905693811 -19.75275483315564, 95.26962395314526 -19.485548438735297 M93.99512058409155 -20.258159870868806 C94.32559077147383 -20.057826901219283, 94.6560609588561 -19.857493931569763, 95.26962395314526 -19.485548438735297 M95.26962395314526 -19.485548438735297 C95.62596146807302 -19.23698281392409, 95.98229898300079 -18.988417189112887, 96.49200733392077 -18.63286670842999 M95.26962395314526 -19.485548438735297 C95.69552226049736 -19.18846021636705, 96.12142056784944 -18.891371993998803, 96.49200733392077 -18.63286670842999 M96.49200733392077 -18.63286670842999 C96.8270950140249 -18.365643200604598, 97.16218269412906 -18.098419692779203, 97.65724769090608 -17.703618532082377 M96.49200733392077 -18.63286670842999 C96.9462426213957 -18.270626154377382, 97.40047790887064 -17.908385600324774, 97.65724769090608 -17.703618532082377 M97.65724769090608 -17.703618532082377 C98.01151328952989 -17.381883888766332, 98.36577888815368 -17.06014924545029, 98.76055680153107 -16.701622389772165 M97.65724769090608 -17.703618532082377 C97.91805815729776 -17.466757367172242, 98.17886862368945 -17.229896202262104, 98.76055680153107 -16.701622389772165 M98.76055680153107 -16.701622389772165 C99.16157459433715 -16.28753859452679, 99.56259238714323 -15.873454799281411, 99.79740093200108 -15.63099569857562 M98.76055680153107 -16.701622389772165 C99.00802309324052 -16.446093126221744, 99.25548938495 -16.19056386267132, 99.79740093200108 -15.63099569857562 M99.79740093200108 -15.63099569857562 C100.12755405047665 -15.243179059369591, 100.4577071689522 -14.855362420163562, 100.76351946738168 -14.496137893215556 M99.79740093200108 -15.63099569857562 C99.99246162151076 -15.401866313409887, 100.18752231102044 -15.172736928244152, 100.76351946738168 -14.496137893215556 M100.76351946738168 -14.496137893215556 C101.01974825666453 -14.15281465849946, 101.27597704594737 -13.809491423783363, 101.65494241937921 -13.30171234784045 M100.76351946738168 -14.496137893215556 C101.0705129533239 -14.08479458973491, 101.37750643926611 -13.673451286254265, 101.65494241937921 -13.30171234784045 M101.65494241937921 -13.30171234784045 C101.91771999651958 -12.898015423693252, 102.18049757365996 -12.494318499546054, 102.4680067398743 -12.05262721321971 M101.65494241937921 -13.30171234784045 C101.87832166343807 -12.958541843240218, 102.10170090749693 -12.615371338639985, 102.4680067398743 -12.05262721321971 M102.4680067398743 -12.05262721321971 C102.73609347304165 -11.576612071755653, 103.004180206209 -11.100596930291594, 103.19937137317226 -10.754015248099419 M102.4680067398743 -12.05262721321971 C102.68520861456166 -11.666963290637522, 102.90241048924904 -11.281299368055336, 103.19937137317226 -10.754015248099419 M103.19937137317226 -10.754015248099419 C103.44485603482791 -10.244261095641138, 103.69034069648356 -9.734506943182854, 103.84603098511764 -9.411212727595661 M103.19937137317226 -10.754015248099419 C103.44162651275464 -10.250967267326985, 103.68388165233702 -9.747919286554549, 103.84603098511764 -9.411212727595661 M103.84603098511764 -9.411212727595661 C104.00552693330016 -9.017254651940437, 104.16502288148268 -8.623296576285213, 104.40532831265692 -8.029737515295414 M103.84603098511764 -9.411212727595661 C104.0184639422971 -8.985299989597959, 104.19089689947656 -8.559387251600254, 104.40532831265692 -8.029737515295414 M104.40532831265692 -8.029737515295414 C104.50740691662304 -7.722293024166314, 104.60948552058916 -7.414848533037214, 104.87496508310235 -6.615266389171511 M104.40532831265692 -8.029737515295414 C104.56960787831991 -7.534953637912711, 104.73388744398291 -7.040169760530007, 104.87496508310235 -6.615266389171511 M104.87496508310235 -6.615266389171511 C104.99856677128281 -6.1439195828288975, 105.12216845946328 -5.672572776486284, 105.2530114582274 -5.173611714484312 M104.87496508310235 -6.615266389171511 C104.95096260295792 -6.325454908428813, 105.02696012281348 -6.035643427686115, 105.2530114582274 -5.173611714484312 M105.2530114582274 -5.173611714484312 C105.36468540384685 -4.60018960602523, 105.47635934946629 -4.02676749756615, 105.53791396438596 -3.710697559526076 M105.2530114582274 -5.173611714484312 C105.33798019227804 -4.737315223282581, 105.42294892632869 -4.30101873208085, 105.53791396438596 -3.710697559526076 M105.53791396438596 -3.710697559526076 C105.59366470989855 -3.2783057865604452, 105.64941545541112 -2.845914013594814, 105.72850187606886 -2.2325353523536053 M105.53791396438596 -3.710697559526076 C105.59297566037799 -3.283649918573639, 105.64803735637001 -2.856602277621202, 105.72850187606886 -2.2325353523536053 M105.72850187606886 -2.2325353523536053 C105.75881871904413 -1.7603260516986077, 105.7891355620194 -1.28811675104361, 105.82399202666599 -0.7451991785409826 M105.72850187606886 -2.2325353523536053 C105.75082168898962 -1.8848862498840626, 105.77314150191037 -1.5372371474145199, 105.82399202666599 -0.7451991785409826 M105.82399202666599 -0.7451991785409826 C105.82399202666599 -0.386234431095135, 105.82399202666599 -0.02726968364928739, 105.82399202666599 0.745199178540977 M105.82399202666599 -0.7451991785409826 C105.82399202666599 -0.22488482850350233, 105.82399202666599 0.29542952153397795, 105.82399202666599 0.745199178540977 M105.82399202666599 0.745199178540977 C105.7866006282863 1.3276003900983016, 105.7492092299066 1.910001601655626, 105.72850187606886 2.2325353523535894 M105.82399202666599 0.745199178540977 C105.80473479115062 1.0451461658534946, 105.78547755563527 1.3450931531660122, 105.72850187606886 2.2325353523535894 M105.72850187606886 2.2325353523535894 C105.66766540974325 2.704370971655976, 105.60682894341763 3.1762065909583628, 105.53791396438596 3.7106975595260594 M105.72850187606886 2.2325353523535894 C105.67117954991653 2.6771159944174134, 105.6138572237642 3.1216966364812375, 105.53791396438596 3.7106975595260594 M105.53791396438596 3.7106975595260594 C105.43042744353491 4.262618126811994, 105.32294092268387 4.814538694097928, 105.2530114582274 5.1736117144843075 M105.53791396438596 3.7106975595260594 C105.42814427695463 4.274341704654348, 105.31837458952329 4.837985849782636, 105.2530114582274 5.1736117144843075 M105.2530114582274 5.1736117144843075 C105.12176825252463 5.674098938994144, 104.99052504682184 6.174586163503981, 104.87496508310235 6.615266389171495 M105.2530114582274 5.1736117144843075 C105.10407691974905 5.74156365833954, 104.95514238127069 6.309515602194773, 104.87496508310235 6.615266389171495 M104.87496508310235 6.615266389171495 C104.71998778756472 7.082033311052114, 104.56501049202707 7.5488002329327335, 104.40532831265693 8.029737515295398 M104.87496508310235 6.615266389171495 C104.77760110921335 6.90851116568262, 104.68023713532435 7.2017559421937465, 104.40532831265693 8.029737515295398 M104.40532831265693 8.029737515295398 C104.22994465808789 8.462938532893224, 104.05456100351884 8.89613955049105, 103.84603098511764 9.411212727595656 M104.40532831265693 8.029737515295398 C104.2820500572462 8.334237189582854, 104.15877180183544 8.638736863870312, 103.84603098511764 9.411212727595656 M103.84603098511764 9.411212727595656 C103.6241663975891 9.871919290740363, 103.40230181006056 10.332625853885071, 103.19937137317226 10.754015248099414 M103.84603098511764 9.411212727595656 C103.70389434153154 9.706362509239163, 103.56175769794544 10.00151229088267, 103.19937137317226 10.754015248099414 M103.19937137317226 10.754015248099414 C103.0507059177205 11.017985818263762, 102.90204046226876 11.28195638842811, 102.4680067398743 12.052627213219704 M103.19937137317226 10.754015248099414 C103.04530732459347 11.027571567027659, 102.89124327601466 11.301127885955903, 102.4680067398743 12.052627213219704 M102.4680067398743 12.052627213219704 C102.20112078012421 12.46263571631062, 101.93423482037413 12.872644219401536, 101.65494241937922 13.301712347840438 M102.4680067398743 12.052627213219704 C102.25884452632187 12.37395654115483, 102.04968231276943 12.695285869089956, 101.65494241937922 13.301712347840438 M101.65494241937922 13.301712347840438 C101.39933320832307 13.644205404177503, 101.14372399726693 13.986698460514571, 100.7635194673817 14.49613789321555 M101.65494241937922 13.301712347840438 C101.42587846173113 13.608637182933052, 101.19681450408302 13.915562018025664, 100.7635194673817 14.49613789321555 M100.7635194673817 14.49613789321555 C100.42166723929354 14.897696972270731, 100.07981501120538 15.299256051325914, 99.7974009320011 15.630995698575607 M100.7635194673817 14.49613789321555 C100.52993896865563 14.77051483812609, 100.29635846992956 15.044891783036629, 99.7974009320011 15.630995698575607 M99.7974009320011 15.630995698575607 C99.5460574602284 15.890528468863726, 99.2947139884557 16.150061239151846, 98.76055680153107 16.70162238977216 M99.7974009320011 15.630995698575607 C99.50106045163932 15.936991574555057, 99.20471997127754 16.242987450534507, 98.76055680153107 16.70162238977216 M98.76055680153107 16.70162238977216 C98.4630750769291 16.971787421120546, 98.16559335232715 17.241952452468926, 97.6572476909061 17.703618532082363 M98.76055680153107 16.70162238977216 C98.39853773399611 17.03039852840777, 98.03651866646115 17.35917466704338, 97.6572476909061 17.703618532082363 M97.6572476909061 17.703618532082363 C97.32311779618391 17.970078231553387, 96.98898790146173 18.236537931024415, 96.49200733392078 18.63286670842999 M97.6572476909061 17.703618532082363 C97.32466263343179 17.968846264958056, 96.99207757595747 18.23407399783375, 96.49200733392078 18.63286670842999 M96.49200733392078 18.63286670842999 C96.18793955967915 18.844971224859155, 95.88387178543752 19.057075741288315, 95.26962395314527 19.48554843873529 M96.49200733392078 18.63286670842999 C96.0460951081268 18.94391577391473, 95.60018288233282 19.25496483939947, 95.26962395314527 19.48554843873529 M95.26962395314527 19.48554843873529 C94.84596404971819 19.742373561894727, 94.42230414629113 19.999198685054164, 93.99512058409155 20.258159870868802 M95.26962395314527 19.48554843873529 C94.80994208621539 19.764210287858685, 94.3502602192855 20.042872136982076, 93.99512058409155 20.258159870868802 M93.99512058409155 20.258159870868802 C93.49462323852273 20.519269015468204, 92.99412589295392 20.78037816006761, 92.67373443448324 20.94752617873124 M93.99512058409155 20.258159870868802 C93.57166174809193 20.479078074371476, 93.14820291209232 20.69999627787415, 92.67373443448324 20.94752617873124 M92.67373443448324 20.94752617873124 C92.33584394909073 21.09710027344938, 91.99795346369821 21.24667436816752, 91.31089536344545 21.550814608295003 M92.67373443448324 20.94752617873124 C92.22797116639603 21.144852354415917, 91.78220789830883 21.342178530100593, 91.31089536344545 21.550814608295003 M91.31089536344545 21.550814608295003 C90.90523642766134 21.700100846533655, 90.49957749187722 21.849387084772303, 89.9122035690492 22.06554611799804 M91.31089536344545 21.550814608295003 C90.77353965004225 21.748566478089145, 90.23618393663904 21.946318347883288, 89.9122035690492 22.06554611799804 M89.9122035690492 22.06554611799804 C89.51863734335646 22.182354507912372, 89.12507111766372 22.2991628978267, 88.48340657589607 22.48960556565743 M89.9122035690492 22.06554611799804 C89.56415363730343 22.16884551078881, 89.21610370555766 22.272144903579584, 88.48340657589607 22.48960556565743 M88.48340657589607 22.48960556565743 C88.1195118394001 22.57266216462756, 87.75561710290415 22.655718763597683, 87.03037561730692 22.82125040004227 M88.48340657589607 22.48960556565743 C88.14238962285741 22.567440459844917, 87.80137266981876 22.645275354032403, 87.03037561730692 22.82125040004227 M87.03037561730692 22.82125040004227 C86.57080691563011 22.895549903720866, 86.1112382139533 22.96984940739946, 85.55908150916478 23.05911782139047 M87.03037561730692 22.82125040004227 C86.59127824290869 22.89224025828398, 86.15218086851046 22.96323011652569, 85.55908150916478 23.05911782139047 M85.55908150916478 23.05911782139047 C85.18885723355874 23.09483291199835, 84.81863295795269 23.13054800260623, 84.07557011455157 23.202230381445318 M85.55908150916478 23.05911782139047 C84.98155057197107 23.114831536318974, 84.40401963477734 23.17054525124748, 84.07557011455157 23.202230381445318 M84.07557011455157 23.202230381445318 C83.57161652627187 23.218391192135297, 83.06766293799218 23.23455200282527, 82.5859375 23.25 M84.07557011455157 23.202230381445318 C83.59850089293202 23.21752906282375, 83.1214316713125 23.232827744202183, 82.5859375 23.25 M82.5859375 23.25 C82.5859375 23.25, 82.5859375 23.25, 82.5859375 23.25 M82.5859375 23.25 C82.5859375 23.25, 82.5859375 23.25, 82.5859375 23.25 M82.5859375 23.25 C17.884742067207753 23.25, -46.81645336558449 23.25, -82.5859375 23.25 M82.5859375 23.25 C21.034908649098497 23.25, -40.516120201803005 23.25, -82.5859375 23.25 M-82.5859375 23.25 C-82.9724873318514 23.23760409926613, -83.3590371637028 23.225208198532258, -84.07557011455157 23.202230381445318 M-82.5859375 23.25 C-83.13536073350613 23.232381066288905, -83.68478396701227 23.21476213257781, -84.07557011455157 23.202230381445318 M-84.07557011455157 23.202230381445318 C-84.37298745998356 23.173538887828183, -84.67040480541557 23.144847394211048, -85.55908150916477 23.05911782139047 M-84.07557011455157 23.202230381445318 C-84.63928068188537 23.14784990097577, -85.20299124921917 23.093469420506228, -85.55908150916477 23.05911782139047 M-85.55908150916477 23.05911782139047 C-86.05245475307416 22.97935306148185, -86.54582799698356 22.89958830157323, -87.0303756173069 22.82125040004227 M-85.55908150916477 23.05911782139047 C-85.95751399173318 22.99470234749886, -86.3559464743016 22.930286873607248, -87.0303756173069 22.82125040004227 M-87.0303756173069 22.82125040004227 C-87.56124549995508 22.70008281357756, -88.09211538260324 22.57891522711285, -88.48340657589604 22.489605565657435 M-87.0303756173069 22.82125040004227 C-87.47506318987891 22.719753363460313, -87.9197507624509 22.61825632687836, -88.48340657589604 22.489605565657435 M-88.48340657589604 22.489605565657435 C-88.94823100013652 22.351648116456055, -89.41305542437699 22.21369066725467, -89.91220356904917 22.06554611799805 M-88.48340657589604 22.489605565657435 C-88.86401095514005 22.376644183730967, -89.24461533438406 22.263682801804503, -89.91220356904917 22.06554611799805 M-89.91220356904917 22.06554611799805 C-90.44802738603504 21.868358000246186, -90.9838512030209 21.67116988249432, -91.31089536344545 21.550814608295006 M-89.91220356904917 22.06554611799805 C-90.37742355071721 21.894340864297842, -90.84264353238527 21.723135610597634, -91.31089536344545 21.550814608295006 M-91.31089536344545 21.550814608295006 C-91.58384975831015 21.429985794592845, -91.85680415317483 21.309156980890688, -92.67373443448322 20.94752617873125 M-91.31089536344545 21.550814608295006 C-91.62480666922598 21.411855385074002, -91.93871797500651 21.272896161852998, -92.67373443448322 20.94752617873125 M-92.67373443448322 20.94752617873125 C-93.16654825839949 20.690425522456454, -93.65936208231575 20.433324866181657, -93.99512058409155 20.25815987086881 M-92.67373443448322 20.94752617873125 C-93.13661001105822 20.70604428691803, -93.59948558763321 20.464562395104814, -93.99512058409155 20.25815987086881 M-93.99512058409155 20.25815987086881 C-94.3066333568422 20.069318997375113, -94.61814612959284 19.880478123881417, -95.26962395314524 19.485548438735304 M-93.99512058409155 20.25815987086881 C-94.25044203586928 20.103382506365755, -94.505763487647 19.9486051418627, -95.26962395314524 19.485548438735304 M-95.26962395314524 19.485548438735304 C-95.74817153870268 19.15173435904153, -96.22671912426011 18.817920279347756, -96.49200733392077 18.632866708429994 M-95.26962395314524 19.485548438735304 C-95.59071356319369 19.261570226510702, -95.91180317324213 19.037592014286098, -96.49200733392077 18.632866708429994 M-96.49200733392077 18.632866708429994 C-96.78152369641404 18.40198511369558, -97.0710400589073 18.17110351896117, -97.65724769090608 17.70361853208238 M-96.49200733392077 18.632866708429994 C-96.91162952289062 18.298229179341952, -97.33125171186047 17.96359165025391, -97.65724769090608 17.70361853208238 M-97.65724769090608 17.70361853208238 C-98.0197520086862 17.37440170201314, -98.3822563264663 17.0451848719439, -98.76055680153105 16.701622389772176 M-97.65724769090608 17.70361853208238 C-98.04535840913994 17.35114664662927, -98.43346912737381 16.998674761176165, -98.76055680153105 16.701622389772176 M-98.76055680153105 16.701622389772176 C-98.99906207426307 16.45534611402932, -99.23756734699506 16.209069838286467, -99.7974009320011 15.630995698575616 M-98.76055680153105 16.701622389772176 C-98.99967501045994 16.454713207083046, -99.23879321938882 16.207804024393916, -99.7974009320011 15.630995698575616 M-99.7974009320011 15.630995698575616 C-100.06503992133297 15.316611712616488, -100.33267891066482 15.002227726657361, -100.76351946738168 14.49613789321556 M-99.7974009320011 15.630995698575616 C-100.0021770871169 15.390453974683274, -100.2069532422327 15.149912250790932, -100.76351946738168 14.49613789321556 M-100.76351946738168 14.49613789321556 C-100.96103297924586 14.231487781168669, -101.15854649111003 13.96683766912178, -101.65494241937921 13.301712347840452 M-100.76351946738168 14.49613789321556 C-101.11001045175531 14.031871540132938, -101.45650143612896 13.567605187050317, -101.65494241937921 13.301712347840452 M-101.65494241937921 13.301712347840452 C-101.96457686757967 12.826030686913315, -102.27421131578014 12.350349025986176, -102.46800673987428 12.05262721321972 M-101.65494241937921 13.301712347840452 C-101.9607811606416 12.83186191206021, -102.26661990190401 12.362011476279967, -102.46800673987428 12.05262721321972 M-102.46800673987428 12.05262721321972 C-102.68116797556932 11.674137854327475, -102.89432921126438 11.295648495435227, -103.19937137317226 10.754015248099423 M-102.46800673987428 12.05262721321972 C-102.63453413062696 11.756940968211506, -102.80106152137964 11.46125472320329, -103.19937137317226 10.754015248099423 M-103.19937137317226 10.754015248099423 C-103.41900976106155 10.297931436138647, -103.63864814895084 9.84184762417787, -103.84603098511764 9.411212727595665 M-103.19937137317226 10.754015248099423 C-103.33328731639871 10.475935926647512, -103.46720325962518 10.197856605195602, -103.84603098511764 9.411212727595665 M-103.84603098511764 9.411212727595665 C-104.06794332047751 8.863084968873649, -104.28985565583737 8.314957210151631, -104.40532831265692 8.029737515295416 M-103.84603098511764 9.411212727595665 C-103.97965629379595 9.081155631690617, -104.11328160247427 8.75109853578557, -104.40532831265692 8.029737515295416 M-104.40532831265692 8.029737515295416 C-104.5930948525141 7.464214613780969, -104.78086139237128 6.898691712266522, -104.87496508310235 6.615266389171504 M-104.40532831265692 8.029737515295416 C-104.58241341746552 7.496385394291737, -104.75949852227411 6.963033273288059, -104.87496508310235 6.615266389171504 M-104.87496508310235 6.615266389171504 C-104.97927600065721 6.217483651897189, -105.08358691821208 5.819700914622874, -105.2530114582274 5.1736117144843154 M-104.87496508310235 6.615266389171504 C-104.97572503562738 6.231025020553935, -105.0764849881524 5.8467836519363665, -105.2530114582274 5.1736117144843154 M-105.2530114582274 5.1736117144843154 C-105.36465387084345 4.600351521333156, -105.4762962834595 4.027091328181997, -105.53791396438596 3.710697559526078 M-105.2530114582274 5.1736117144843154 C-105.35044731265613 4.673299195067931, -105.44788316708485 4.172986675651546, -105.53791396438596 3.710697559526078 M-105.53791396438596 3.710697559526078 C-105.60682225032375 3.176258501272882, -105.67573053626151 2.6418194430196857, -105.72850187606886 2.232535352353618 M-105.53791396438596 3.710697559526078 C-105.59123760728367 3.297129915155759, -105.64456125018138 2.88356227078544, -105.72850187606886 2.232535352353618 M-105.72850187606886 2.232535352353618 C-105.76149124376587 1.7186993219342694, -105.79448061146289 1.2048632915149207, -105.82399202666599 0.7451991785409855 M-105.72850187606886 2.232535352353618 C-105.75374879741943 1.8392941733703267, -105.77899571877 1.4460529943870353, -105.82399202666599 0.7451991785409855 M-105.82399202666599 0.7451991785409855 C-105.82399202666599 0.4267654054288096, -105.82399202666599 0.10833163231663367, -105.82399202666599 -0.7451991785409742 M-105.82399202666599 0.7451991785409855 C-105.82399202666599 0.2800016691781175, -105.82399202666599 -0.18519584018475055, -105.82399202666599 -0.7451991785409742 M-105.82399202666599 -0.7451991785409742 C-105.7959805237738 -1.1815009465648476, -105.76796902088164 -1.617802714588721, -105.72850187606886 -2.2325353523535862 M-105.82399202666599 -0.7451991785409742 C-105.79424716142437 -1.2084994643023144, -105.76450229618276 -1.6717997500636543, -105.72850187606886 -2.2325353523535862 M-105.72850187606886 -2.2325353523535862 C-105.68719565420902 -2.552898252262448, -105.64588943234916 -2.8732611521713096, -105.53791396438596 -3.7106975595260674 M-105.72850187606886 -2.2325353523535862 C-105.65857623075122 -2.77486484905668, -105.58865058543358 -3.3171943457597735, -105.53791396438596 -3.7106975595260674 M-105.53791396438596 -3.7106975595260674 C-105.45694666621297 -4.1264475231998485, -105.37597936803999 -4.542197486873629, -105.2530114582274 -5.173611714484305 M-105.53791396438596 -3.7106975595260674 C-105.46202869531673 -4.100352377839271, -105.3861434262475 -4.490007196152475, -105.2530114582274 -5.173611714484305 M-105.2530114582274 -5.173611714484305 C-105.16794512916404 -5.498006495183157, -105.08287880010067 -5.82240127588201, -104.87496508310237 -6.6152663891714925 M-105.2530114582274 -5.173611714484305 C-105.12670823535267 -5.655260643468745, -105.00040501247793 -6.136909572453186, -104.87496508310237 -6.6152663891714925 M-104.87496508310237 -6.6152663891714925 C-104.71199029983484 -7.106120469867873, -104.54901551656732 -7.596974550564255, -104.40532831265693 -8.029737515295386 M-104.87496508310237 -6.6152663891714925 C-104.76985912717818 -6.93182878205526, -104.66475317125399 -7.2483911749390275, -104.40532831265693 -8.029737515295386 M-104.40532831265693 -8.029737515295386 C-104.25275685148043 -8.406591974169874, -104.10018539030393 -8.783446433044361, -103.84603098511764 -9.411212727595652 M-104.40532831265693 -8.029737515295386 C-104.24737541953293 -8.419884215123112, -104.08942252640892 -8.810030914950838, -103.84603098511764 -9.411212727595652 M-103.84603098511764 -9.411212727595652 C-103.70973001174788 -9.694244615171598, -103.57342903837812 -9.977276502747543, -103.19937137317226 -10.754015248099412 M-103.84603098511764 -9.411212727595652 C-103.65056834355406 -9.817095085032967, -103.45510570199049 -10.222977442470283, -103.19937137317226 -10.754015248099412 M-103.19937137317226 -10.754015248099412 C-103.01470382254058 -11.081911183863173, -102.8300362719089 -11.409807119626935, -102.4680067398743 -12.052627213219713 M-103.19937137317226 -10.754015248099412 C-102.92248844770717 -11.245648919699155, -102.64560552224208 -11.737282591298898, -102.4680067398743 -12.052627213219713 M-102.4680067398743 -12.052627213219713 C-102.23646401534445 -12.408339016024811, -102.00492129081462 -12.76405081882991, -101.65494241937922 -13.301712347840445 M-102.4680067398743 -12.052627213219713 C-102.26234279539496 -12.368582260441794, -102.05667885091562 -12.684537307663877, -101.65494241937922 -13.301712347840445 M-101.65494241937922 -13.301712347840445 C-101.36790454783538 -13.686316946021142, -101.08086667629155 -14.07092154420184, -100.7635194673817 -14.49613789321555 M-101.65494241937922 -13.301712347840445 C-101.43557413775528 -13.595645860354947, -101.21620585613134 -13.88957937286945, -100.7635194673817 -14.49613789321555 M-100.7635194673817 -14.49613789321555 C-100.51157545313387 -14.792085668371579, -100.25963143888605 -15.088033443527605, -99.7974009320011 -15.630995698575607 M-100.7635194673817 -14.49613789321555 C-100.52294123900774 -14.778734769552603, -100.28236301063377 -15.061331645889657, -99.7974009320011 -15.630995698575607 M-99.7974009320011 -15.630995698575607 C-99.48394932579203 -15.954660216841948, -99.17049771958294 -16.27832473510829, -98.76055680153107 -16.701622389772155 M-99.7974009320011 -15.630995698575607 C-99.56876341487876 -15.867082706493681, -99.34012589775641 -16.103169714411756, -98.76055680153107 -16.701622389772155 M-98.76055680153107 -16.701622389772155 C-98.42963585429489 -17.002156038363587, -98.0987149070587 -17.302689686955024, -97.6572476909061 -17.70361853208236 M-98.76055680153107 -16.701622389772155 C-98.32576219015866 -17.096491351785563, -97.89096757878626 -17.49136031379897, -97.6572476909061 -17.70361853208236 M-97.6572476909061 -17.70361853208236 C-97.2464322526703 -18.031232911817476, -96.8356168144345 -18.358847291552593, -96.49200733392078 -18.632866708429987 M-97.6572476909061 -17.70361853208236 C-97.33641244932753 -17.95947609945693, -97.01557720774896 -18.215333666831498, -96.49200733392078 -18.632866708429987 M-96.49200733392078 -18.632866708429987 C-96.18149539179464 -18.84946639741185, -95.87098344966851 -19.06606608639371, -95.26962395314527 -19.485548438735286 M-96.49200733392078 -18.632866708429987 C-96.10475851498684 -18.902994720787117, -95.71750969605289 -19.17312273314425, -95.26962395314527 -19.485548438735286 M-95.26962395314527 -19.485548438735286 C-94.88746126153987 -19.717217708223735, -94.50529856993448 -19.94888697771219, -93.99512058409155 -20.258159870868802 M-95.26962395314527 -19.485548438735286 C-94.96242847965273 -19.67177214004745, -94.65523300616019 -19.857995841359617, -93.99512058409155 -20.258159870868802 M-93.99512058409155 -20.258159870868802 C-93.52602959130022 -20.502884341340923, -93.05693859850888 -20.747608811813045, -92.67373443448324 -20.94752617873124 M-93.99512058409155 -20.258159870868802 C-93.59820435420707 -20.46523081376256, -93.20128812432259 -20.672301756656314, -92.67373443448324 -20.94752617873124 M-92.67373443448324 -20.94752617873124 C-92.16096095617365 -21.174515786694105, -91.64818747786406 -21.401505394656972, -91.31089536344547 -21.550814608295 M-92.67373443448324 -20.94752617873124 C-92.36917424189447 -21.08234594153317, -92.0646140493057 -21.217165704335095, -91.31089536344547 -21.550814608295 M-91.31089536344547 -21.550814608295 C-90.85147374342468 -21.71988601130955, -90.39205212340389 -21.888957414324103, -89.9122035690492 -22.06554611799804 M-91.31089536344547 -21.550814608295 C-90.9360847365463 -21.688748383705345, -90.56127410964714 -21.826682159115688, -89.9122035690492 -22.06554611799804 M-89.9122035690492 -22.06554611799804 C-89.39904923666847 -22.217847630246585, -88.88589490428774 -22.370149142495126, -88.48340657589607 -22.489605565657428 M-89.9122035690492 -22.06554611799804 C-89.60468873518099 -22.156814906511823, -89.29717390131276 -22.24808369502561, -88.48340657589607 -22.489605565657428 M-88.48340657589607 -22.489605565657428 C-87.99325190855417 -22.60148016992009, -87.50309724121229 -22.71335477418275, -87.03037561730692 -22.821250400042267 M-88.48340657589607 -22.489605565657428 C-88.10081232672641 -22.576930206369603, -87.71821807755676 -22.664254847081775, -87.03037561730692 -22.821250400042267 M-87.03037561730692 -22.821250400042267 C-86.6877037932294 -22.876650923099433, -86.34503196915189 -22.932051446156603, -85.55908150916478 -23.05911782139047 M-87.03037561730692 -22.821250400042267 C-86.68399268768276 -22.877250905864162, -86.3376097580586 -22.933251411686058, -85.55908150916478 -23.05911782139047 M-85.55908150916478 -23.05911782139047 C-85.09019338535018 -23.10435089477439, -84.62130526153558 -23.14958396815831, -84.07557011455158 -23.202230381445318 M-85.55908150916478 -23.05911782139047 C-85.03738093967469 -23.109445647892446, -84.51568037018461 -23.159773474394424, -84.07557011455158 -23.202230381445318 M-84.07557011455158 -23.202230381445318 C-83.5432654241589 -23.219300356797987, -83.01096073376624 -23.236370332150656, -82.58593750000001 -23.25 M-84.07557011455158 -23.202230381445318 C-83.75403017397898 -23.212541541499956, -83.43249023340636 -23.222852701554594, -82.58593750000001 -23.25 M-82.58593750000001 -23.25 C-82.58593750000001 -23.25, -82.5859375 -23.25, -82.5859375 -23.25 M-82.58593750000001 -23.25 C-82.58593750000001 -23.25, -82.5859375 -23.25, -82.5859375 -23.25" stroke="#F08C00" stroke-width="1.3" fill="none" stroke-dasharray="0 0" style="fill:#3a2c12 !important;stroke:#F08C00 !important"/></g><g class="label" style="color:#fff !important" transform="translate(-80.0234375, -11.25)"><rect/><foreignObject width="160.046875" height="22.5"><div style="color: rgb(255, 255, 255) !important; display: table-cell; white-space: nowrap; line-height: 1.5; max-width: 260px; text-align: center;" xmlns="http://www.w3.org/1999/xhtml"><span style="color:#fff !important" class="nodeLabel"><p>What makes it CLOUD?</p></span></div></foreignObject></g></g><g class="node default" id="my-svg-flowchart-A-2" data-look="neo" transform="translate(402.0307922363281, 57.75)"><rect class="basic label-container" style="fill:#12243f !important;stroke:#5C7CFA !important" x="-118.3828125" y="-45.75" width="236.765625" height="91.5"/><g class="label" style="color:#fff !important" transform="translate(-102.3828125, -33.75)"><rect/><foreignObject width="204.765625" height="67.5"><div style="color: rgb(255, 255, 255) !important; display: table-cell; white-space: nowrap; line-height: 1.5; max-width: 260px; text-align: center;" xmlns="http://www.w3.org/1999/xhtml"><span style="color:#fff !important" class="nodeLabel"><p>ON-DEMAND SELF-SERVICE<br />set it up yourself,<br />no human at the provider</p></span></div></foreignObject></g></g><g class="node default" id="my-svg-flowchart-B-4" data-look="neo" transform="translate(399.2495422363281, 189.25)"><rect class="basic label-container" style="fill:#12243f !important;stroke:#5C7CFA !important" x="-115.6015625" y="-45.75" width="231.203125" height="91.5"/><g class="label" style="color:#fff !important" transform="translate(-99.6015625, -33.75)"><rect/><foreignObject width="199.203125" height="67.5"><div style="color: rgb(255, 255, 255) !important; display: table-cell; white-space: nowrap; line-height: 1.5; max-width: 260px; text-align: center;" xmlns="http://www.w3.org/1999/xhtml"><span style="color:#fff !important" class="nodeLabel"><p>BROAD NETWORK ACCESS<br />reach it from any device,<br />anywhere</p></span></div></foreignObject></g></g><g class="node default" id="my-svg-flowchart-P-6" data-look="neo" transform="translate(389.6870422363281, 320.75)"><rect class="basic label-container" style="fill:#12243f !important;stroke:#5C7CFA !important" x="-106.0390625" y="-45.75" width="212.078125" height="91.5"/><g class="label" style="color:#fff !important" transform="translate(-90.0390625, -33.75)"><rect/><foreignObject width="180.078125" height="67.5"><div style="color: rgb(255, 255, 255) !important; display: table-cell; white-space: nowrap; line-height: 1.5; max-width: 260px; text-align: center;" xmlns="http://www.w3.org/1999/xhtml"><span style="color:#fff !important" class="nodeLabel"><p>RESOURCE POOLING<br />one provider's kit<br />shared by many customers</p></span></div></foreignObject></g></g><g class="node default" id="my-svg-flowchart-E-8" data-look="neo" transform="translate(367.5854797363281, 452.25)"><rect class="basic label-container" style="fill:#12243f !important;stroke:#5C7CFA !important" x="-83.9375" y="-45.75" width="167.875" height="91.5"/><g class="label" style="color:#fff !important" transform="translate(-67.9375, -33.75)"><rect/><foreignObject width="135.875" height="67.5"><div style="color: rgb(255, 255, 255) !important; display: table-cell; white-space: nowrap; line-height: 1.5; max-width: 260px; text-align: center;" xmlns="http://www.w3.org/1999/xhtml"><span style="color:#fff !important" class="nodeLabel"><p>RAPID ELASTICITY<br />grows and shrinks<br />fast with demand</p></span></div></foreignObject></g></g><g class="node default" id="my-svg-flowchart-M-10" data-look="neo" transform="translate(377.0307922363281, 583.75)"><rect class="basic label-container" style="fill:#12243f !important;stroke:#5C7CFA !important" x="-93.3828125" y="-45.75" width="186.765625" height="91.5"/><g class="label" style="color:#fff !important" transform="translate(-77.3828125, -33.75)"><rect/><foreignObject width="154.765625" height="67.5"><div style="color: rgb(255, 255, 255) !important; display: table-cell; white-space: nowrap; line-height: 1.5; max-width: 260px; text-align: center;" xmlns="http://www.w3.org/1999/xhtml"><span style="color:#fff !important" class="nodeLabel"><p>MEASURED SERVICE<br />usage is metered:<br />pay for what you use</p></span></div></foreignObject></g></g></g></g></g><defs><filter id="my-svg-drop-shadow" height="130%" width="130%"><feDropShadow dx="4" dy="4" stdDeviation="0" flood-opacity="0.06" flood-color="#000000"/></filter></defs><defs><filter id="my-svg-drop-shadow-small" height="150%" width="150%"><feDropShadow dx="2" dy="2" stdDeviation="0" flood-opacity="0.06" flood-color="#000000"/></filter></defs><linearGradient id="my-svg-gradient" gradientUnits="objectBoundingBox" x1="0%" y1="0%" x2="100%" y2="0%"><stop offset="0%" stop-color="#5C7CFA" stop-opacity="1"/><stop offset="100%" stop-color="hsl(96, 15.5555555556%, 5.8823529412%)" stop-opacity="1"/></linearGradient></svg>